<svg width="181" height="49" viewBox="0 0 181 49" fill="none" xmlns="http://www.w3.org/2000/svg">
<path d="M50.562 5.83456H58.8828C59.7225 5.77375 60.566 5.8795 61.3646 6.14567C62.1631 6.41185 62.9009 6.83319 63.5353 7.38537C63.9845 7.76459 64.3439 8.23845 64.5876 8.77283C64.8312 9.30721 64.9531 9.88883 64.9444 10.4758C64.9665 10.9484 64.9213 11.4217 64.8102 11.8816C64.5187 12.6167 64.0856 13.2876 63.5353 13.8564C63.2916 14.0911 63.0074 14.2801 62.6965 14.4142C63.6604 14.7091 64.5338 15.2426 65.2352 15.965C65.8422 16.7723 66.1397 17.7696 66.074 18.7766C66.0882 19.5019 65.9431 20.2216 65.649 20.8852C65.3013 21.5006 64.8198 22.0305 64.2399 22.436C63.5644 22.8223 62.8573 23.1508 62.1262 23.4178C61.2067 23.6551 60.256 23.7492 59.3078 23.6967H50.7074V5.84571L50.562 5.83456ZM58.1782 13.1535C58.9034 13.1475 59.6208 13.0036 60.292 12.7295C60.5522 12.5991 60.7701 12.3978 60.9205 12.1491C61.0709 11.9003 61.1477 11.6142 61.142 11.3237C61.146 11.0503 61.0841 10.7798 60.9615 10.5352C60.8389 10.2905 60.6591 10.0788 60.4374 9.91798C60.1571 9.70998 59.8353 9.56447 59.4938 9.49133C59.1523 9.41818 58.799 9.41909 58.4578 9.49402H54.5099V13.2874H58.1782V13.1535ZM59.1624 20.3274C59.8876 20.3214 60.605 20.1775 61.2762 19.9034C61.5578 19.7684 61.7833 19.5397 61.914 19.2566C62.0447 18.9735 62.0722 18.6538 61.992 18.3526C61.992 18.0786 61.9271 17.8085 61.8027 17.5642C61.6784 17.3199 61.498 17.1084 61.2762 16.9468C60.5944 16.5636 59.8217 16.3709 59.0394 16.389H54.3869V20.3274H59.1624Z" fill="#121212"/>
<path d="M71.0063 5.84619H74.9542V23.8534H71.0063V5.84619Z" fill="#121212"/>
<path d="M81.0166 5.84619H84.6849L93.1511 16.9585V5.84619H97.0989V23.8534H93.7102L84.8303 12.4511V23.8534H81.0166V5.84619Z" fill="#121212"/>
<path d="M109.088 5.67871H112.756L120.506 23.831H116.48L114.78 19.7476H107.164L105.475 23.831H101.382L109.088 5.67871ZM113.315 16.3782L110.888 10.4762L108.495 16.3893L113.315 16.3782Z" fill="#121212"/>
<path d="M124.734 5.84619H128.402L136.868 16.9585V5.84619H140.816V23.8534H137.428L128.682 12.4511V23.8534H124.734V5.84619Z" fill="#121212"/>
<path d="M155.198 24.1214C153.943 24.1058 152.701 23.8678 151.53 23.4185C149.312 22.4726 147.546 20.7104 146.598 18.4984C146.146 17.3301 145.908 16.0908 145.893 14.8389C145.928 12.3766 146.886 10.0166 148.577 8.22285C149.41 7.36601 150.417 6.69654 151.53 6.25924C152.735 5.75237 154.036 5.51255 155.343 5.55635C156.092 5.53581 156.84 5.5806 157.58 5.69023C158.211 5.79727 158.824 5.98867 159.403 6.25924C159.94 6.50664 160.459 6.78992 160.958 7.10716C161.459 7.4372 161.931 7.81053 162.367 8.22285L159.974 11.1794C159.304 10.6195 158.598 10.1051 157.86 9.63978C157.125 9.23682 156.294 9.04017 155.455 9.07077C154.73 9.07675 154.013 9.22064 153.342 9.49473C152.672 9.75035 152.087 10.1869 151.653 10.7555C151.199 11.3124 150.823 11.9279 150.534 12.5852C150.26 13.2547 150.115 13.9704 150.109 14.6939C150.116 15.457 150.26 16.2127 150.534 16.9252C150.765 17.6111 151.147 18.2365 151.653 18.755C152.129 19.2911 152.714 19.719 153.37 20.0097C154.026 20.3003 154.737 20.447 155.455 20.4396C156.381 20.4595 157.299 20.2687 158.139 19.8818C158.902 19.4483 159.611 18.9279 160.253 18.331L162.792 20.8636L161.383 22.2694C160.85 22.6494 160.285 22.9817 159.694 23.2623C159.065 23.5764 158.401 23.8124 157.714 23.9652C156.872 24.0696 156.024 24.1144 155.176 24.0991L155.198 24.1214Z" fill="#121212"/>
<path d="M167.322 5.84619H180.865V9.36061H171.135V13.0201H179.736V16.5345H171.135V20.3278H181V23.8534H167.322V5.84619Z" fill="#121212"/>
<path d="M55.6402 41.5705C54.6694 41.6002 53.7048 41.4055 52.822 41.0015C51.8882 40.6479 51.0276 40.126 50.2832 39.4618L51.6924 37.911C52.2436 38.4123 52.8607 38.8365 53.5266 39.1718C54.1961 39.451 54.9145 39.5951 55.6402 39.5957C56.2295 39.5943 56.8093 39.4488 57.329 39.1718C57.5125 39.0507 57.6615 38.8843 57.7615 38.6888C57.8614 38.4933 57.9089 38.2753 57.8994 38.0561C57.9204 37.8552 57.8689 37.6534 57.754 37.4871C57.6198 37.3532 57.4744 37.0631 57.329 36.9292L56.4902 36.5053C56.0652 36.3602 55.4949 36.2263 55.0811 36.0813C54.4521 35.9586 53.8375 35.7717 53.247 35.5234C52.7805 35.3733 52.3476 35.1346 51.972 34.8206C51.6599 34.5183 51.3789 34.1857 51.1332 33.8276C50.9095 33.3465 50.8096 32.8173 50.8424 32.288C50.8677 31.7602 50.9655 31.2384 51.1332 30.7371C51.3291 30.3094 51.6152 29.9288 51.972 29.6215C52.398 29.3086 52.8746 29.0708 53.3812 28.9186C53.934 28.7553 54.505 28.6616 55.0811 28.6396C55.945 28.6403 56.8028 28.7835 57.6198 29.0636C58.3512 29.3827 59.0577 29.7556 59.7336 30.1793L58.6152 31.8751C58.0837 31.4968 57.5184 31.1682 56.9264 30.8933C56.3928 30.6572 55.8085 30.5575 55.2265 30.6033C54.6818 30.5934 54.1459 30.7406 53.6831 31.0272C53.3572 31.3129 53.1532 31.712 53.1128 32.1429C53.0906 32.3864 53.1411 32.631 53.2581 32.8458C53.3923 32.9908 53.5377 33.2698 53.6831 33.4036C53.9968 33.5761 54.3263 33.718 54.6673 33.8276C55.1728 34.0115 55.6928 34.1533 56.2218 34.2516C56.8429 34.3953 57.4523 34.5855 58.0448 34.8206C58.5009 34.9938 58.9301 35.2304 59.3198 35.5234C59.5981 35.8174 59.8352 36.1477 60.0244 36.5053C60.1999 36.9537 60.2946 37.4297 60.304 37.911C60.2937 38.4395 60.1994 38.9629 60.0244 39.4618C59.7426 39.9161 59.4127 40.3388 59.0402 40.7226C58.6169 41.0398 58.1394 41.278 57.631 41.4254C56.9152 41.3808 56.2106 41.5705 55.6402 41.5705Z" fill="#121212"/>
<path d="M62.6855 28.7734H65.0901L68.8926 34.6754L72.8405 28.7734H75.2338V41.4365H72.9859V32.2879L69.038 38.201H68.8926L64.9447 32.2879V41.4365H62.6855V28.7734Z" fill="#121212"/>
<path d="M82.8612 28.6284H84.975L90.4774 41.2915H88.0729L86.8091 38.1899H80.8817L79.5732 41.2915H77.3364L82.8612 28.6284ZM86.1046 36.3601L83.8678 31.2949L81.7541 36.3601H86.1046Z" fill="#121212"/>
<path d="M92.7258 28.7622H98.3177C99.0303 28.7874 99.7385 28.8846 100.431 29.0523C101.026 29.2402 101.561 29.5785 101.986 30.0341C102.329 30.4086 102.612 30.8339 102.825 31.2948C103 31.7937 103.094 32.3172 103.104 32.8456C103.082 33.3255 102.987 33.7992 102.825 34.2514C102.691 34.6754 102.4 34.9543 102.266 35.3671C101.963 35.6818 101.629 35.9658 101.27 36.215C100.879 36.4627 100.453 36.6507 100.006 36.7728L103.362 41.5592H100.823L97.7249 37.1968H94.8955V41.5592H92.6587L92.7258 28.7622ZM98.2282 34.9543C98.8886 35.0088 99.5448 34.8092 100.062 34.3964C100.493 33.9927 100.747 33.4352 100.767 32.8456C100.747 32.2561 100.493 31.6985 100.062 31.2948C99.4774 30.9067 98.785 30.7116 98.0828 30.737H94.8396V34.9543H98.2282Z" fill="#121212"/>
<path d="M108.942 30.7371H104.849V28.7734H115.149V30.7371H111.056V41.4365H108.797L108.942 30.7371Z" fill="#121212"/>
<path d="M128.783 41.5705C127.903 41.5826 127.033 41.3877 126.244 41.0015C125.49 40.6935 124.805 40.239 124.229 39.6643C123.653 39.0897 123.197 38.4065 122.889 37.6544C122.538 36.8587 122.392 35.9881 122.464 35.1218C122.462 34.2598 122.606 33.4037 122.889 32.5892C123.189 31.8122 123.64 31.1019 124.216 30.4989C124.791 29.8958 125.481 29.4119 126.244 29.0748C127.1 28.7342 128.007 28.5417 128.928 28.5058C129.451 28.4755 129.975 28.5244 130.483 28.6508L131.746 29.0748C132.171 29.2087 132.451 29.4876 132.865 29.6326C133.279 29.7777 133.569 30.1905 133.849 30.4805L132.44 32.1652C131.984 31.714 131.459 31.3374 130.885 31.0496C130.27 30.7608 129.597 30.6158 128.917 30.6256C128.344 30.6505 127.776 30.748 127.228 30.9157C126.701 31.1574 126.22 31.4897 125.808 31.8975C125.399 32.2761 125.107 32.7641 124.969 33.3032C124.805 33.8509 124.711 34.4169 124.689 34.9879C124.711 35.5626 124.805 36.1323 124.969 36.6838C125.11 37.2217 125.401 37.709 125.808 38.0895C126.223 38.4937 126.703 38.8256 127.228 39.0713C127.737 39.3688 128.339 39.4682 128.917 39.3503C129.597 39.36 130.27 39.215 130.885 38.9263C131.515 38.5985 132.089 38.173 132.585 37.6656L133.994 39.0713L133.01 40.0532C132.67 40.3354 132.294 40.5717 131.892 40.756C131.452 40.9814 130.974 41.125 130.483 41.18C129.984 41.5172 129.382 41.6674 128.783 41.604V41.5705Z" fill="#121212"/>
<path d="M136.297 28.7734H138.411V33.9725H144.484V28.7734H146.732V41.4365H144.484V36.0924H138.411V41.4365H136.297V28.7734Z" fill="#121212"/>
<path d="M154.505 28.6284H156.619L162.121 41.2915H159.728L158.453 38.1899H152.537L151.262 41.2915H149.025L154.505 28.6284ZM157.614 36.3601L155.489 31.2949L153.387 36.3601H157.614Z" fill="#121212"/>
<path d="M164.358 28.7734H166.617V41.4365H164.358V28.7734Z" fill="#121212"/>
<path d="M170.006 28.7734H171.975L178.752 37.4981V28.7734H181V41.4365H179.166L172.254 32.4329V41.4365H170.006V28.7734Z" fill="#121212"/>
<path d="M25.7453 40.5888V46.0668L20.9474 48.8783L16.2949 46.0668V40.5888L20.9474 43.4003L25.7453 40.5888ZM0.0223896 21.622L4.67491 24.4448V33.8612L12.716 38.6475V44.1367L0.0223896 36.6839V21.622ZM41.7606 21.622V36.6839L28.9326 44.1367V38.6475L36.9738 33.8612V24.4448L41.7606 21.622ZM28.9326 14.1693L33.7306 16.9808V22.4142L25.6894 27.2005V36.762L21.0368 39.5735L16.3844 36.762V27.2005L8.11949 22.4142V16.9473L12.9174 14.1358L20.9474 18.9221L28.9326 14.1693ZM8.06359 26.4418L12.716 29.2534V34.6868L8.06359 31.8752V26.4418ZM33.7306 26.4418V31.931L29.134 34.6868V29.1976L33.7306 26.4418ZM4.65252 9.41642L9.45038 12.2391L4.65252 15.0506V20.5287L0 17.7171V12.2391L4.65252 9.41642ZM37.0857 9.41642L41.8836 12.2391V17.7171L37.0857 20.5287V15.0506L32.4332 12.2391L37.0857 9.41642ZM20.8691 9.41642L25.667 12.2391L20.8691 15.0506L16.2166 12.2391L20.8691 9.41642ZM20.8691 0L33.7082 7.4528L29.0557 10.2643L21.0145 5.47804L12.8391 10.2643L8.1754 7.4528L20.8691 0Z" fill="#121212"/>
</svg>
