<svg width="150" height="37" viewBox="0 0 150 37" fill="none" xmlns="http://www.w3.org/2000/svg">
<mask id="mask0_31_83" style="mask-type:alpha" maskUnits="userSpaceOnUse" x="0" y="0" width="29" height="20">
<path d="M0.244141 15.99L19.3543 16.144C19.3543 16.144 23.5722 16.6791 27.175 19.839C27.38 20.0174 28.1818 19.839 28.1818 19.839L28.0843 0.887695L0.244141 0.920125V15.99Z" fill="white"/>
</mask>
<g mask="url(#mask0_31_83)">
<path fill-rule="evenodd" clip-rule="evenodd" d="M24.1221 5.15628C21.8487 3.28749 18.7209 2.35107 14.7385 2.35107C9.41441 2.35107 7.0538 2.35107 4.817 2.35107V3.73543C4.817 3.73543 10.202 3.73543 14.5558 3.73543C17.9414 3.73543 21.0064 4.43268 22.8778 6.04608C24.7493 7.6615 26.1681 10.0654 26.1681 13.0327C26.1681 15.8967 24.94 18.0189 22.9935 19.6242C21.047 21.2295 17.5761 21.9368 14.1011 21.9368C9.95433 21.9368 2.91309 21.9368 2.91309 21.9368V23.3212C2.91309 23.3212 12.4388 23.3192 14.1783 23.3192C18.3697 23.3192 21.6437 22.4091 24.0003 20.593C26.3568 18.7749 27.5341 16.219 27.5341 12.9213C27.5341 9.61542 26.3974 7.02709 24.1221 5.15628Z" fill="#121212"/>
<path fill-rule="evenodd" clip-rule="evenodd" d="M23.282 7.16272C21.8672 6.0905 20.2414 5.22705 15.6419 5.22705C10.6812 5.22908 10.0743 5.22705 7.98975 5.22705V6.57695C7.98975 6.57695 11.414 6.53236 15.4714 6.57695C19.3929 6.61749 20.832 7.05935 22.1514 8.03428C23.8401 9.28081 24.8875 10.8192 24.8875 12.9718C24.8875 15.0473 23.8239 16.5168 22.127 17.7633C20.3916 19.0403 17.7387 19.0544 16.6589 19.0788C16.2509 19.0889 10.9776 19.0788 10.9776 19.0788V20.4287C10.9776 20.4287 13.602 20.4651 15.2238 20.4266C18.9464 20.3435 21.1548 20.1226 23.2109 18.5964C25.1412 17.1674 26.1622 15.2804 26.1622 12.8907C26.1622 9.73889 24.583 8.14981 23.282 7.16272Z" fill="#121212"/>
<path fill-rule="evenodd" clip-rule="evenodd" d="M22.5979 8.94381C21.5364 8.279 20.6047 7.83105 16.2103 7.83105C11.7448 7.83105 12.5871 7.83105 10.7096 7.83105V8.71883C10.7096 8.71883 12.4065 8.71883 16.058 8.71883C19.9511 8.71883 21.4268 9.41 21.8733 9.68362C22.7481 10.2187 23.901 11.0903 23.901 12.8658C23.901 14.0009 23.2292 15.4258 22.2366 15.9852C21.3314 16.4939 19.6771 16.95 16.7624 16.95C16.395 16.95 -1.20508 16.95 -1.20508 16.95V17.8378C-1.20508 17.8378 15.3679 17.8378 16.8293 17.8378C20.3429 17.8378 21.5485 17.4486 22.7867 16.7655C24.0289 16.0825 24.8571 14.6779 24.8571 12.8739C24.8571 10.8592 23.7305 9.65119 22.5979 8.94381Z" fill="#121212"/>
</g>
<path fill-rule="evenodd" clip-rule="evenodd" d="M26.0952 18.7379C23.8219 16.8671 20.692 15.9327 16.7116 15.9327C11.3855 15.9327 12.3131 15.9307 10.0743 15.9307V17.315C10.0743 17.315 12.1731 17.315 16.5269 17.315C19.9125 17.315 22.9795 18.0123 24.851 19.6257C26.7224 21.2411 28.1392 23.645 28.1392 26.6144C28.1392 29.4763 26.9132 31.5985 24.9667 33.2038C23.0201 34.809 19.5472 35.5164 16.0722 35.5164C11.9275 35.5164 4.88623 35.5164 4.88623 35.5164V36.9008C4.88623 36.9008 14.4099 36.8988 16.1514 36.8988C20.3429 36.8988 23.6148 35.9907 25.9714 34.1726C28.3279 32.3565 29.5072 29.7986 29.5072 26.5029C29.5072 23.195 28.3706 20.6067 26.0952 18.7379Z" fill="#121212"/>
<path fill-rule="evenodd" clip-rule="evenodd" d="M25.2549 20.7423C23.8402 19.6721 22.2144 18.8066 17.6149 18.8066C12.6522 18.8087 9.29697 18.8066 7.2124 18.8066V20.1565C7.2124 20.1565 13.3849 20.112 17.4444 20.1565C21.3659 20.1971 22.803 20.6389 24.1223 21.6139C25.8131 22.8624 26.8605 24.3988 26.8605 26.5514C26.8605 28.6269 25.7969 30.0964 24.1 31.3449C22.3646 32.6198 19.7117 32.6361 18.6298 32.6604C18.2218 32.6685 12.9485 32.6604 12.9485 32.6604V34.0083C12.9485 34.0083 15.573 34.0447 17.1968 34.0083C20.9173 33.9231 23.1278 33.7022 25.1839 32.178C27.1122 30.747 28.1331 28.86 28.1331 26.4703C28.1331 23.3205 26.556 21.7294 25.2549 20.7423Z" fill="#121212"/>
<path fill-rule="evenodd" clip-rule="evenodd" d="M9.43896 25.3228H19.1879V24.5688H9.43896V25.3228Z" fill="#121212"/>
<path fill-rule="evenodd" clip-rule="evenodd" d="M13.46 27.9601H19.1311V27.3115H13.46V27.9601Z" fill="#121212"/>
<path fill-rule="evenodd" clip-rule="evenodd" d="M4.88623 25.3228H7.77458V24.5688H4.88623V25.3228Z" fill="#121212"/>
<path fill-rule="evenodd" clip-rule="evenodd" d="M3.08594 28.0128H11.8586V27.2588H3.08594V28.0128Z" fill="#121212"/>
<path fill-rule="evenodd" clip-rule="evenodd" d="M5.24756 8.66034H8.66568V8.03809H5.24756V8.66034Z" fill="#121212"/>
<path fill-rule="evenodd" clip-rule="evenodd" d="M2.8667 13.707H10.6955V12.9834H2.8667V13.707Z" fill="#121212"/>
<path fill-rule="evenodd" clip-rule="evenodd" d="M3.08594 33.9152H11.341V33.0112H3.08594V33.9152Z" fill="#121212"/>
<path fill-rule="evenodd" clip-rule="evenodd" d="M1.02783 36.8455H3.0921V35.5361H1.02783V36.8455Z" fill="#121212"/>
<path fill-rule="evenodd" clip-rule="evenodd" d="M6.1875 11.4975H19.1496V10.7739H6.1875V11.4975Z" fill="#121212"/>
<path fill-rule="evenodd" clip-rule="evenodd" d="M12.6685 13.707H18.9039V12.9834H12.6685V13.707Z" fill="#121212"/>
<path fill-rule="evenodd" clip-rule="evenodd" d="M24.5711 22.6597C23.5075 22.0172 22.5758 21.5854 18.1834 21.5854C13.7179 21.5854 13.0501 21.5854 11.1746 21.5854V22.4428C11.1746 22.4428 14.3776 22.4428 18.0291 22.4428C21.9222 22.4428 23.3999 23.1097 23.8464 23.3752C24.7192 23.892 25.8742 24.7312 25.8742 26.4459C25.8742 27.5425 25.2023 28.9167 24.2077 29.4558C23.3025 29.9484 21.6482 30.3882 18.7335 30.3882C18.3661 30.3882 0.768066 30.3882 0.768066 30.3882V31.2456C0.768066 31.2456 17.3411 31.2435 18.8005 31.2435C22.316 31.2435 23.5217 30.8686 24.7598 30.2098C26 29.5491 26.8282 28.1931 26.8282 26.452C26.8282 24.5082 25.7037 23.3428 24.5711 22.6597Z" fill="#121212"/>
<path fill-rule="evenodd" clip-rule="evenodd" d="M43.0316 20.7221V28.6108H47.3469C49.2123 28.6108 50.6595 28.254 51.6886 27.5406C52.7156 26.8271 53.2292 25.8481 53.2292 24.6056C53.2292 22.0153 51.0472 20.7221 46.6832 20.7221H43.0316ZM43.0316 11.3316V18.4115H46.2874C48.0269 18.4115 49.3949 18.073 50.3915 17.396C51.3882 16.717 51.8875 15.7624 51.8875 14.528C51.8875 12.3977 50.152 11.3316 46.6832 11.3316H43.0316ZM39.853 30.9356V9.00879H47.5742C49.9186 9.00879 51.7799 9.47295 53.1541 10.3992C54.5282 11.3275 55.2163 12.5356 55.2163 14.0233C55.2163 15.2678 54.8002 16.3481 53.968 17.2663C53.1358 18.1825 51.9869 18.8351 50.5255 19.2222V19.2831C52.3543 19.4574 53.8157 20.0148 54.9138 20.9573C56.0119 21.9018 56.56 23.1281 56.56 24.6361C56.56 26.5109 55.7278 28.0311 54.0634 29.1925C52.3969 30.3539 50.2982 30.9356 47.763 30.9356H39.853Z" fill="#121212"/>
<path fill-rule="evenodd" clip-rule="evenodd" d="M60.0997 30.9355H63.2012V15.2779H60.0997V30.9355ZM61.689 11.3011C61.1328 11.3011 60.6599 11.1491 60.2702 10.8431C59.8785 10.537 59.6836 10.1499 59.6836 9.68167C59.6836 9.21143 59.8785 8.82227 60.2702 8.51013C60.6599 8.20002 61.1328 8.04395 61.689 8.04395C62.2553 8.04395 62.7384 8.20002 63.1362 8.51013C63.5341 8.82227 63.7309 9.21143 63.7309 9.68167C63.7309 10.1296 63.5341 10.5127 63.1362 10.8269C62.7384 11.143 62.2553 11.3011 61.689 11.3011Z" fill="#121212"/>
<path fill-rule="evenodd" clip-rule="evenodd" d="M76.9203 30.7836C76.1876 31.11 75.2234 31.2721 74.0259 31.2721C70.6321 31.2721 68.9353 29.7438 68.9353 26.6853V17.4184H65.6064V15.278H68.9353V11.4553L72.0387 10.6445V15.278H76.9203V17.4184H72.0387V26.2414C72.0387 27.2913 72.26 28.0413 72.7005 28.4892C73.1429 28.9371 73.8737 29.1621 74.8967 29.1621C75.6781 29.1621 76.352 28.9898 76.9203 28.6412V30.7836Z" fill="#121212"/>
<path fill-rule="evenodd" clip-rule="evenodd" d="M105.092 30.9357H102.185V17.4042C102.185 16.334 102.266 15.0267 102.429 13.4782H102.36C102.082 14.3882 101.83 15.0389 101.611 15.4341L93.0816 30.9357H91.6546L83.1438 15.5456C82.9003 15.0956 82.6506 14.4065 82.3949 13.4782H82.3259C82.4192 14.2849 82.4659 15.6023 82.4659 17.4306V30.9357H79.6445V10.7642H83.5092L91.1675 24.8307C91.7602 25.909 92.1418 26.7157 92.3163 27.2508H92.4199C92.9192 26.1441 93.319 25.3192 93.6215 24.774L101.436 10.7642H105.092V30.9357Z" fill="#121212"/>
<path fill-rule="evenodd" clip-rule="evenodd" d="M120.861 23.0146L116.188 23.5355C114.749 23.6977 113.665 23.9855 112.932 24.399C112.202 24.8125 111.836 25.5442 111.836 26.5921C111.836 27.3582 112.173 27.9825 112.849 28.4669C113.523 28.9513 114.422 29.1925 115.545 29.1925C117.083 29.1925 118.354 28.7568 119.357 27.8852C120.359 27.0136 120.861 25.911 120.861 24.5753V23.0146ZM123.964 30.9357H120.861V28.4892H120.786C119.436 30.3641 117.449 31.3025 114.826 31.3025C112.896 31.3025 111.386 30.889 110.294 30.0641C109.204 29.2392 108.658 28.1426 108.658 26.7765C108.658 23.8517 110.789 22.1491 115.053 21.6688L120.861 21.012C120.861 18.3508 119.529 17.0211 116.868 17.0211C114.536 17.0211 112.429 17.6636 110.549 18.9467V16.3786C112.453 15.3996 114.65 14.9111 117.134 14.9111C121.687 14.9111 123.964 16.8569 123.964 20.7526V30.9357Z" fill="#121212"/>
<path fill-rule="evenodd" clip-rule="evenodd" d="M138.363 17.8158C137.821 17.4793 137.038 17.3111 136.017 17.3111C134.694 17.3111 133.585 17.8158 132.696 18.8251C131.807 19.8345 131.363 21.2108 131.363 22.9539V30.9358H128.259V15.2781H131.363V18.5049H131.438C131.88 17.4023 132.554 16.5449 133.464 15.9267C134.371 15.3105 135.386 15.0024 136.508 15.0024C137.316 15.0024 137.933 15.0734 138.363 15.2173V17.8158Z" fill="#121212"/>
<path fill-rule="evenodd" clip-rule="evenodd" d="M149.167 30.7836C148.435 31.11 147.471 31.2721 146.273 31.2721C142.879 31.2721 141.182 29.7438 141.182 26.6853V17.4184H137.854V15.278H141.182V11.4553L144.286 10.6445V15.278H149.167V17.4184H144.286V26.2414C144.286 27.2913 144.507 28.0413 144.948 28.4892C145.39 28.9371 146.121 29.1621 147.144 29.1621C147.925 29.1621 148.599 28.9898 149.167 28.6412V30.7836Z" fill="#121212"/>
</svg>
