<svg width="138" height="24" viewBox="0 0 138 24" fill="none" xmlns="http://www.w3.org/2000/svg">
<path d="M7.67705 1.5C8.56038 1.5 9.37705 1.74167 10.1271 2.225C10.8771 2.69167 11.4771 3.33333 11.9271 4.15C12.3771 4.96667 12.6021 5.88333 12.6021 6.9C12.6021 7.91667 12.3771 8.84167 11.9271 9.675C11.4771 10.4917 10.8771 11.15 10.1271 11.65C9.37705 12.1333 8.56038 12.375 7.67705 12.375H2.85205L3.05205 11.975V17.725C3.05205 18.0917 2.93538 18.4 2.70205 18.65C2.48538 18.8833 2.19372 19 1.82705 19C1.47705 19 1.18538 18.8833 0.952051 18.65C0.735384 18.4 0.627051 18.0917 0.627051 17.725V2.775C0.627051 2.40833 0.752051 2.10833 1.00205 1.875C1.25205 1.625 1.55205 1.5 1.90205 1.5H7.67705ZM7.67705 9.975C8.11038 9.975 8.50205 9.83333 8.85205 9.55C9.21872 9.26667 9.51038 8.89167 9.72705 8.425C9.96038 7.95833 10.0771 7.45 10.0771 6.9C10.0771 6.35 9.96038 5.85 9.72705 5.4C9.51038 4.95 9.21872 4.59167 8.85205 4.325C8.50205 4.04167 8.11038 3.9 7.67705 3.9H2.80205L3.05205 3.525V10.3L2.82705 9.975H7.67705ZM27.7226 12.425C27.7226 13.7583 27.4309 14.9417 26.8476 15.975C26.2642 16.9917 25.4726 17.7917 24.4726 18.375C23.4726 18.9583 22.3476 19.25 21.0976 19.25C19.8476 19.25 18.7226 18.9583 17.7226 18.375C16.7226 17.7917 15.9226 16.9917 15.3226 15.975C14.7392 14.9417 14.4476 13.7583 14.4476 12.425C14.4476 11.075 14.7392 9.89167 15.3226 8.875C15.9226 7.84167 16.7226 7.03333 17.7226 6.45C18.7226 5.85 19.8476 5.55 21.0976 5.55C22.3476 5.55 23.4726 5.85 24.4726 6.45C25.4726 7.03333 26.2642 7.84167 26.8476 8.875C27.4309 9.89167 27.7226 11.075 27.7226 12.425ZM25.2226 12.425C25.2226 11.5083 25.0392 10.7167 24.6726 10.05C24.3059 9.36667 23.8059 8.83333 23.1726 8.45C22.5559 8.05 21.8642 7.85 21.0976 7.85C20.3309 7.85 19.6309 8.05 18.9976 8.45C18.3642 8.83333 17.8642 9.36667 17.4976 10.05C17.1309 10.7167 16.9476 11.5083 16.9476 12.425C16.9476 13.3083 17.1309 14.0917 17.4976 14.775C17.8642 15.4583 18.3642 15.9917 18.9976 16.375C19.6309 16.7583 20.3309 16.95 21.0976 16.95C21.8642 16.95 22.5559 16.7583 23.1726 16.375C23.8059 15.9917 24.3059 15.4583 24.6726 14.775C25.0392 14.0917 25.2226 13.3083 25.2226 12.425ZM45.8772 5.725C46.1939 5.725 46.4689 5.85 46.7022 6.1C46.9522 6.33333 47.0772 6.64167 47.0772 7.025C47.0772 7.10833 47.0689 7.19167 47.0522 7.275C47.0356 7.35833 47.0106 7.43333 46.9772 7.5L43.1522 18.2C43.0522 18.4833 42.8772 18.7 42.6272 18.85C42.3772 18.9833 42.1189 19.0333 41.8522 19C41.3689 18.9667 41.0106 18.7 40.7772 18.2L37.9522 10.7L38.5272 10.75L35.9272 18.2C35.6939 18.7 35.3356 18.9667 34.8522 19C34.6022 19.0333 34.3439 18.9833 34.0772 18.85C33.8272 18.7 33.6522 18.4833 33.5522 18.2L29.7022 7.5C29.6356 7.35 29.6022 7.19167 29.6022 7.025C29.6022 6.675 29.7106 6.375 29.9272 6.125C30.1606 5.85833 30.4689 5.725 30.8522 5.725C31.1189 5.725 31.3522 5.79167 31.5522 5.925C31.7689 6.05833 31.9189 6.25833 32.0022 6.525L35.2022 15.55L34.6272 15.5L37.2272 8.675C37.4439 8.15833 37.8272 7.9 38.3772 7.9C38.6772 7.9 38.9106 7.96667 39.0772 8.1C39.2439 8.23333 39.3772 8.425 39.4772 8.675L42.1272 15.525L41.4522 15.6L44.6772 6.525C44.8439 5.99167 45.2439 5.725 45.8772 5.725ZM55.7446 19.25C54.3613 19.25 53.1613 18.9667 52.1446 18.4C51.128 17.8167 50.3363 17.025 49.7696 16.025C49.2196 15.0083 48.9446 13.85 48.9446 12.55C48.9446 11.0833 49.2363 9.83333 49.8196 8.8C50.4196 7.75 51.1946 6.95 52.1446 6.4C53.0946 5.83333 54.103 5.55 55.1696 5.55C55.9863 5.55 56.7613 5.71667 57.4946 6.05C58.228 6.36667 58.878 6.81667 59.4446 7.4C60.028 7.96667 60.4863 8.64167 60.8196 9.425C61.153 10.1917 61.328 11.0333 61.3446 11.95C61.328 12.2833 61.1946 12.5583 60.9446 12.775C60.6946 12.9917 60.403 13.1 60.0696 13.1H50.3446L49.7446 10.975H59.1446L58.6696 11.425V10.8C58.6363 10.2167 58.4446 9.70833 58.0946 9.275C57.7446 8.825 57.3113 8.48333 56.7946 8.25C56.278 8 55.7363 7.875 55.1696 7.875C54.6696 7.875 54.1863 7.95833 53.7196 8.125C53.2696 8.275 52.8613 8.525 52.4946 8.875C52.1446 9.225 51.8613 9.69167 51.6446 10.275C51.4446 10.8417 51.3446 11.55 51.3446 12.4C51.3446 13.3167 51.5363 14.1167 51.9196 14.8C52.303 15.4833 52.8196 16.0167 53.4696 16.4C54.1196 16.7667 54.8363 16.95 55.6196 16.95C56.2363 16.95 56.7446 16.8917 57.1446 16.775C57.5446 16.6417 57.878 16.4833 58.1446 16.3C58.4113 16.1167 58.6446 15.9417 58.8446 15.775C59.0946 15.625 59.3446 15.55 59.5946 15.55C59.8946 15.55 60.1446 15.6583 60.3446 15.875C60.5446 16.075 60.6446 16.3167 60.6446 16.6C60.6446 16.9667 60.4613 17.3 60.0946 17.6C59.6446 18.0333 59.0196 18.4167 58.2196 18.75C57.4363 19.0833 56.6113 19.25 55.7446 19.25ZM65.4204 19C65.0537 19 64.7537 18.8833 64.5204 18.65C64.2871 18.4 64.1704 18.0917 64.1704 17.725V7.125C64.1704 6.75833 64.2871 6.45833 64.5204 6.225C64.7537 5.975 65.0537 5.85 65.4204 5.85C65.7704 5.85 66.0621 5.975 66.2954 6.225C66.5454 6.45833 66.6704 6.75833 66.6704 7.125V9.925L66.4204 8.85C66.5537 8.38333 66.7537 7.95 67.0204 7.55C67.3037 7.15 67.6371 6.8 68.0204 6.5C68.4037 6.2 68.8287 5.96667 69.2954 5.8C69.7787 5.63333 70.2787 5.55 70.7954 5.55C71.2287 5.55 71.6037 5.66667 71.9204 5.9C72.2371 6.13333 72.3954 6.425 72.3954 6.775C72.3954 7.225 72.2787 7.55833 72.0454 7.775C71.8121 7.975 71.5537 8.075 71.2704 8.075C71.0204 8.075 70.7787 8.025 70.5454 7.925C70.3121 7.80833 70.0371 7.75 69.7204 7.75C69.3704 7.75 69.0121 7.84167 68.6454 8.025C68.2787 8.20833 67.9454 8.48333 67.6454 8.85C67.3454 9.2 67.1037 9.61667 66.9204 10.1C66.7537 10.5833 66.6704 11.125 66.6704 11.725V17.725C66.6704 18.0917 66.5454 18.4 66.2954 18.65C66.0621 18.8833 65.7704 19 65.4204 19ZM80.1831 19.25C78.7998 19.25 77.5998 18.9667 76.5831 18.4C75.5664 17.8167 74.7748 17.025 74.2081 16.025C73.6581 15.0083 73.3831 13.85 73.3831 12.55C73.3831 11.0833 73.6748 9.83333 74.2581 8.8C74.8581 7.75 75.6331 6.95 76.5831 6.4C77.5331 5.83333 78.5414 5.55 79.6081 5.55C80.4248 5.55 81.1998 5.71667 81.9331 6.05C82.6664 6.36667 83.3164 6.81667 83.8831 7.4C84.4664 7.96667 84.9248 8.64167 85.2581 9.425C85.5914 10.1917 85.7664 11.0333 85.7831 11.95C85.7664 12.2833 85.6331 12.5583 85.3831 12.775C85.1331 12.9917 84.8414 13.1 84.5081 13.1H74.7831L74.1831 10.975H83.5831L83.1081 11.425V10.8C83.0748 10.2167 82.8831 9.70833 82.5331 9.275C82.1831 8.825 81.7498 8.48333 81.2331 8.25C80.7164 8 80.1748 7.875 79.6081 7.875C79.1081 7.875 78.6248 7.95833 78.1581 8.125C77.7081 8.275 77.2998 8.525 76.9331 8.875C76.5831 9.225 76.2998 9.69167 76.0831 10.275C75.8831 10.8417 75.7831 11.55 75.7831 12.4C75.7831 13.3167 75.9748 14.1167 76.3581 14.8C76.7414 15.4833 77.2581 16.0167 77.9081 16.4C78.5581 16.7667 79.2748 16.95 80.0581 16.95C80.6748 16.95 81.1831 16.8917 81.5831 16.775C81.9831 16.6417 82.3164 16.4833 82.5831 16.3C82.8498 16.1167 83.0831 15.9417 83.2831 15.775C83.5331 15.625 83.7831 15.55 84.0331 15.55C84.3331 15.55 84.5831 15.6583 84.7831 15.875C84.9831 16.075 85.0831 16.3167 85.0831 16.6C85.0831 16.9667 84.8998 17.3 84.5331 17.6C84.0831 18.0333 83.4581 18.4167 82.6581 18.75C81.8748 19.0833 81.0498 19.25 80.1831 19.25ZM99.3839 0.5C99.7506 0.5 100.051 0.616666 100.284 0.85C100.517 1.08333 100.634 1.39167 100.634 1.775V17.725C100.634 18.0917 100.517 18.4 100.284 18.65C100.051 18.8833 99.7506 19 99.3839 19C99.0339 19 98.7339 18.8833 98.4839 18.65C98.2506 18.4 98.1339 18.0917 98.1339 17.725V15.925L98.6589 15.95C98.6589 16.25 98.5339 16.5917 98.2839 16.975C98.0506 17.3417 97.7256 17.7 97.3089 18.05C96.8922 18.4 96.4006 18.6917 95.8339 18.925C95.2672 19.1417 94.6589 19.25 94.0089 19.25C92.8589 19.25 91.8256 18.9583 90.9089 18.375C89.9922 17.775 89.2672 16.9667 88.7339 15.95C88.2006 14.9167 87.9339 13.7333 87.9339 12.4C87.9339 11.0667 88.2006 9.89167 88.7339 8.875C89.2672 7.84167 89.9839 7.03333 90.8839 6.45C91.8006 5.85 92.8172 5.55 93.9339 5.55C94.6339 5.55 95.2839 5.66667 95.8839 5.9C96.5006 6.13333 97.0339 6.43333 97.4839 6.8C97.9339 7.16667 98.2839 7.55833 98.5339 7.975C98.7839 8.375 98.9089 8.75833 98.9089 9.125L98.1339 9.2V1.775C98.1339 1.40833 98.2506 1.10833 98.4839 0.874999C98.7339 0.625 99.0339 0.5 99.3839 0.5ZM94.2839 16.95C95.0839 16.95 95.7756 16.75 96.3589 16.35C96.9589 15.95 97.4256 15.4083 97.7589 14.725C98.0922 14.0417 98.2589 13.2667 98.2589 12.4C98.2589 11.5333 98.0922 10.7583 97.7589 10.075C97.4256 9.39167 96.9589 8.85 96.3589 8.45C95.7589 8.05 95.0672 7.85 94.2839 7.85C93.5172 7.85 92.8339 8.05 92.2339 8.45C91.6506 8.85 91.1839 9.39167 90.8339 10.075C90.5006 10.7583 90.3339 11.5333 90.3339 12.4C90.3339 13.2667 90.5006 14.0417 90.8339 14.725C91.1839 15.4083 91.6506 15.95 92.2339 16.35C92.8339 16.75 93.5172 16.95 94.2839 16.95ZM117.719 5.55C118.886 5.55 119.919 5.84167 120.819 6.425C121.736 7.00833 122.461 7.81667 122.994 8.85C123.528 9.86667 123.794 11.0417 123.794 12.375C123.794 13.7083 123.528 14.8917 122.994 15.925C122.461 16.9583 121.744 17.775 120.844 18.375C119.944 18.9583 118.928 19.25 117.794 19.25C117.161 19.25 116.561 19.15 115.994 18.95C115.428 18.7333 114.928 18.4667 114.494 18.15C114.061 17.8167 113.703 17.4667 113.419 17.1C113.153 16.7333 112.986 16.3917 112.919 16.075L113.594 15.75V17.925C113.594 18.275 113.469 18.575 113.219 18.825C112.986 19.0583 112.694 19.175 112.344 19.175C111.978 19.175 111.678 19.0583 111.444 18.825C111.211 18.5917 111.094 18.2917 111.094 17.925V1.775C111.094 1.40833 111.211 1.10833 111.444 0.874999C111.678 0.625 111.978 0.5 112.344 0.5C112.694 0.5 112.986 0.625 113.219 0.874999C113.469 1.10833 113.594 1.40833 113.594 1.775V8.8L113.194 8.575C113.244 8.25833 113.403 7.93333 113.669 7.6C113.936 7.25 114.269 6.91667 114.669 6.6C115.086 6.28333 115.553 6.03333 116.069 5.85C116.603 5.65 117.153 5.55 117.719 5.55ZM117.444 7.85C116.644 7.85 115.944 8.05 115.344 8.45C114.761 8.85 114.303 9.39167 113.969 10.075C113.636 10.7417 113.469 11.5083 113.469 12.375C113.469 13.2417 113.636 14.025 113.969 14.725C114.303 15.4083 114.761 15.95 115.344 16.35C115.944 16.75 116.644 16.95 117.444 16.95C118.228 16.95 118.911 16.75 119.494 16.35C120.078 15.95 120.536 15.4 120.869 14.7C121.219 14 121.394 13.225 121.394 12.375C121.394 11.5083 121.219 10.7417 120.869 10.075C120.536 9.39167 120.078 8.85 119.494 8.45C118.911 8.05 118.228 7.85 117.444 7.85ZM136.397 5.75C136.763 5.75 137.063 5.875 137.297 6.125C137.53 6.35833 137.647 6.65833 137.647 7.025V17.775C137.647 19.2417 137.363 20.4333 136.797 21.35C136.247 22.2667 135.497 22.9333 134.547 23.35C133.613 23.7833 132.555 24 131.372 24C130.772 24 130.172 23.9417 129.572 23.825C128.972 23.725 128.48 23.575 128.097 23.375C127.697 23.1917 127.413 22.9667 127.247 22.7C127.08 22.4333 127.055 22.1417 127.172 21.825C127.288 21.425 127.488 21.15 127.772 21C128.055 20.8667 128.347 20.8583 128.647 20.975C128.93 21.0917 129.305 21.2417 129.772 21.425C130.238 21.6083 130.772 21.7 131.372 21.7C132.188 21.7 132.88 21.5667 133.447 21.3C134.013 21.0333 134.438 20.6167 134.722 20.05C135.022 19.4833 135.172 18.75 135.172 17.85V16.125L135.572 16.725C135.305 17.275 134.955 17.7333 134.522 18.1C134.088 18.4667 133.572 18.75 132.972 18.95C132.388 19.15 131.738 19.25 131.022 19.25C130.105 19.25 129.313 19.05 128.647 18.65C127.997 18.2333 127.497 17.6667 127.147 16.95C126.797 16.2167 126.622 15.3833 126.622 14.45V7.025C126.622 6.65833 126.738 6.35833 126.972 6.125C127.205 5.875 127.505 5.75 127.872 5.75C128.222 5.75 128.513 5.875 128.747 6.125C128.997 6.35833 129.122 6.65833 129.122 7.025V13.775C129.122 14.875 129.363 15.6833 129.847 16.2C130.33 16.7 131.047 16.95 131.997 16.95C132.63 16.95 133.18 16.8167 133.647 16.55C134.113 16.2833 134.48 15.9167 134.747 15.45C135.013 14.9667 135.147 14.4083 135.147 13.775V7.025C135.147 6.65833 135.263 6.35833 135.497 6.125C135.747 5.875 136.047 5.75 136.397 5.75Z" fill="black"/>
</svg>
