<svg width="206" height="51" viewBox="0 0 206 51" fill="none" xmlns="http://www.w3.org/2000/svg">
<path fill-rule="evenodd" clip-rule="evenodd" d="M0.806668 1.00027C5.94691 7.24723 11.5908 15.0953 12.5038 16.3648C12.5524 16.4325 12.5877 16.4815 12.6087 16.5106C13.0952 17.184 13.4969 17.6846 13.802 18.0648L13.8021 18.0649L13.8021 18.0649C14.4794 18.9089 14.6803 19.1594 14.2762 19.3894C13.9503 19.5749 13.614 19.6361 13.2785 19.6361C12.8989 19.6361 12.4713 19.4531 12.16 19.1574C11.9399 18.9484 10.4342 16.7586 8.38371 13.573C6.81485 11.1353 5.5019 9.11325 5.46608 9.0794C5.38327 9.0011 5.38469 9.00375 8.22376 14.0902C10.0064 17.2842 11.2259 19.6445 11.2259 19.7955C11.2259 20.1026 11.1422 20.2641 10.7638 20.6868C10.1329 21.3915 9.85092 22.1833 9.64736 23.8219C9.41916 25.6587 8.77745 26.9565 6.99907 29.1771C5.95808 30.4772 5.78775 30.7154 5.52507 31.2394C5.19423 31.8992 5.10323 32.2688 5.06636 33.102C5.02739 33.983 5.1033 34.5521 5.37208 35.3942C5.60741 36.1316 5.85302 36.6186 6.48094 37.5923C7.02285 38.4328 7.33487 39.0573 7.33487 39.3017C7.33487 39.4961 7.37193 39.4963 8.21164 39.3066C10.2212 38.852 11.8529 38.053 12.7706 37.0736C13.3386 36.4673 13.472 36.1327 13.4763 35.302C13.4791 34.7586 13.46 34.6449 13.3133 34.3324C13.0746 33.8234 12.6399 33.4005 11.6819 32.7448C10.4265 31.8854 9.89038 31.1937 9.74228 30.2424C9.6208 29.4619 9.76175 28.9111 10.4562 27.4537C11.175 25.9452 11.3531 25.3024 11.4736 23.7817C11.5514 22.7993 11.6592 22.412 11.9411 22.1011C12.2351 21.7768 12.4997 21.6669 13.2272 21.5673C14.4134 21.4051 15.1687 21.0978 15.7895 20.525C16.328 20.0281 16.5534 19.5492 16.588 18.8284L16.6143 18.282L16.3133 17.9307C15.2234 16.6582 0.0767653 0 0.00969219 0C-0.00463654 0 0.354017 0.450156 0.806668 1.00027ZM7.9467 34.0988C8.19312 33.6617 8.06219 33.1001 7.64998 32.8255C7.26051 32.5663 6.6555 32.6885 6.6555 33.0263C6.6555 33.1294 6.71243 33.2044 6.84079 33.2707C7.05689 33.3821 7.07258 33.5072 6.90255 33.7631C6.73035 34.0223 6.74424 34.2501 6.94175 34.4048C7.26008 34.6545 7.71069 34.5172 7.9467 34.0988ZM15.3639 10.269C14.8776 10.1934 14.8571 10.1846 15.086 10.1494C15.5245 10.0818 16.5599 10.1739 17.2734 10.3438C18.9392 10.7402 20.455 11.7559 22.0729 13.5597L22.5027 14.0389L23.1177 13.9399C25.7082 13.5231 28.3436 13.8544 30.5479 14.874C31.1543 15.1545 32.1103 15.7128 32.2297 15.8563C32.2677 15.9021 32.3378 16.1964 32.3849 16.5106C32.5487 17.5972 32.4668 18.4302 32.1348 19.0523C31.9543 19.3909 31.9442 19.4982 32.0655 19.7879C32.1624 20.0191 32.4327 20.1902 32.7005 20.1899C33.2481 20.1891 33.8376 19.3025 34.1109 18.0688L34.2194 17.5788L34.4344 17.8226C35.6134 19.1603 36.5396 20.9845 36.6987 22.283L36.7401 22.6215L36.542 22.3138C36.2007 21.7842 35.8582 21.4236 35.4192 21.1329C34.6282 20.6087 33.7915 20.4303 31.5764 20.3134C29.5755 20.2079 28.4433 20.0367 27.3204 19.6701C25.4099 19.0464 24.447 18.2158 22.1775 15.2346C21.1696 13.9104 20.5466 13.1777 19.9269 12.5878C18.5187 11.2471 17.1351 10.544 15.3639 10.269ZM32.681 13.2255C32.7313 12.3382 32.8516 11.7529 33.0932 11.2185C33.1888 11.0069 33.2784 10.8337 33.2921 10.8337C33.306 10.8337 33.2644 10.9899 33.1997 11.1807C33.0241 11.6994 32.9952 12.4089 33.1163 13.2344C33.2698 14.2817 33.3573 14.4329 34.4627 15.5642C34.9813 16.0949 35.5845 16.7642 35.8031 17.0516L36.2007 17.574L35.8031 17.2006C35.3169 16.744 34.1988 15.8535 33.9519 15.7262C33.7862 15.6408 33.7615 15.6423 33.6595 15.7441C33.5654 15.8379 33.5455 15.9789 33.5324 16.6453C33.512 17.6839 33.3708 18.3505 33.0295 19.0171C32.8449 19.3777 32.8158 19.3007 32.9828 18.8938C33.1075 18.5899 33.1202 18.4564 33.1193 17.4509C33.1174 15.4307 32.8777 14.9451 31.473 14.1131C31.1174 13.9023 30.5309 13.5984 30.1702 13.4376C29.8096 13.2768 29.523 13.1368 29.5333 13.1263C29.5732 13.0866 30.9431 13.487 31.4945 13.6994C32.3146 14.0153 32.4499 14.0562 32.5495 14.0181C32.6162 13.9926 32.6486 13.7979 32.681 13.2255ZM14.8427 11.6746C14.7105 13.2343 15.3213 15.3207 16.3084 16.6815C17.0736 17.7364 18.2598 18.5561 19.1356 18.6353C19.709 18.6871 19.8813 18.5073 19.6219 18.128C19.2617 17.6014 18.8188 16.7904 18.7015 16.4433C18.6287 16.2276 18.4705 15.5905 18.3499 15.0275C17.9381 13.1054 17.5334 12.3569 16.5985 11.7884C16.2578 11.5812 15.5303 11.31 15.1083 11.233L14.8836 11.1919L14.8427 11.6746ZM31.4838 26.8092C26.8705 24.9494 25.2457 23.3351 25.2457 20.6112C25.2457 20.2103 25.2596 19.8824 25.2763 19.8824C25.2932 19.8824 25.4716 20.0146 25.6729 20.1763C26.6083 20.9276 27.6559 21.2485 30.556 21.6722C32.2623 21.9215 33.2226 22.1227 34.1086 22.4171C36.9242 23.3521 38.6663 25.2495 39.0817 27.8341C39.2024 28.5851 39.1317 29.9933 38.936 30.7356C38.7814 31.3219 38.3098 32.3784 38.1849 32.419C38.1501 32.4303 38.1161 32.2972 38.1073 32.1162C38.0599 31.1457 37.5701 30.2009 36.7476 29.4931C35.8123 28.6884 34.5557 28.0479 31.4838 26.8092ZM28.0223 26.6046C28.087 26.7977 28.1873 27.2374 28.245 27.5819C28.6145 29.7838 27.4602 31.5628 25.2148 32.2522C24.9771 32.3251 24.0407 32.5087 23.134 32.6598C21.2985 32.9658 20.4793 33.1825 19.6563 33.5795C19.0727 33.861 18.3661 34.2826 18.4081 34.3245C18.4216 34.3381 18.5548 34.3062 18.704 34.2537C19.7419 33.8889 20.8969 33.7 22.6517 33.6086C23.3481 33.5725 24.1402 33.5147 24.412 33.4804C25.9753 33.2832 27.0589 32.8077 27.9016 31.949C28.3704 31.471 28.6499 31.0259 28.8752 30.3981C29.018 30.0001 29.0373 29.852 29.0383 29.1465C29.0396 28.4276 29.0223 28.2961 28.8675 27.8539C28.6649 27.2742 28.4259 26.8392 28.1232 26.499L27.9046 26.2533L28.0223 26.6046ZM30.3599 31.3425C29.7468 30.0231 29.6062 28.7493 29.9419 27.5615C29.9779 27.4344 30.0355 27.3305 30.0705 27.3305C30.1052 27.3305 30.2497 27.4089 30.3918 27.5045C30.6741 27.6949 31.2407 28.0156 32.7498 28.8394C34.6331 29.8675 35.7069 30.6635 36.437 31.5733C37.0764 32.3697 37.4721 33.2769 37.6625 34.3831C37.7705 35.0098 37.7073 36.5177 37.5467 37.1486C37.0404 39.1383 35.8636 40.701 34.1851 41.613C33.9392 41.7465 33.7185 41.8561 33.6944 41.8568C33.6707 41.8572 33.7603 41.6292 33.8936 41.3497C34.4582 40.1678 34.5225 39.0182 34.0957 37.7387C33.8342 36.9552 33.3013 35.9992 32.2252 34.3834C30.9742 32.5049 30.6675 32.0048 30.3599 31.3425ZM18.8145 35.6698C16.8743 35.9854 14.7442 37.0135 13.0323 38.4608L12.5227 38.8918L12.9706 38.9619C15.3079 39.3272 15.9374 39.6512 17.5587 41.3236C18.4917 42.2858 18.8068 42.5 19.5807 42.6978C20.7173 42.9883 21.8378 42.4545 22.2221 41.4392C22.3938 40.9855 22.3709 40.2343 22.1739 39.8569C21.7053 38.9589 20.3401 38.6686 19.6799 39.3265C19.1301 39.8746 19.2903 40.7001 19.9742 40.8421C20.1307 40.8748 20.1263 40.8678 19.9343 40.7809C19.635 40.6453 19.5049 40.4575 19.5033 40.1585C19.4995 39.4574 20.3006 39.0639 21.046 39.4005C21.5917 39.6472 21.8084 39.9693 21.8084 40.5342C21.8084 41.4039 21.0691 42.0593 20.2088 41.9522C19.7489 41.8948 19.1865 41.6003 18.8849 41.2588C18.1261 40.3999 18.4217 39.0441 19.4812 38.5239C20.2877 38.128 21.3598 38.2256 22.1912 38.7706C23.1464 39.3971 23.5526 39.9696 24.3754 41.8485C24.6433 42.4603 24.988 43.149 25.1413 43.3787C25.9207 44.547 26.8544 45.1199 27.9792 45.1199C28.5995 45.1199 29.0662 45.0064 29.6533 44.713C30.0896 44.4947 30.708 44.0802 30.6634 44.0357C30.6507 44.0232 30.4698 44.0795 30.2613 44.1609C29.0332 44.6405 27.7848 44.6076 27.0598 44.0761C26.6032 43.7416 26.2349 43.0752 26.0457 42.2418C26.0129 42.0975 25.9048 41.4605 25.8054 40.8259C25.5533 39.2177 25.3113 38.4948 24.7468 37.6652C24.1694 36.8165 23.0592 36.1042 21.818 35.7861C21.0437 35.5876 19.6507 35.5336 18.8145 35.6698ZM16.0971 23.2358C16.2647 22.6162 16.806 22.0252 17.3628 21.8539C17.7169 21.7451 18.4488 21.8146 18.7929 21.9897C19.4598 22.3293 19.944 23.1026 19.8389 23.6608C19.7108 24.3415 18.6084 24.8861 17.3403 24.895C16.6926 24.8995 16.4534 24.8124 16.206 24.4817C16.0529 24.2769 15.9949 23.6139 16.0971 23.2358ZM18.6226 22.2324C18.9552 22.4358 19.0408 22.7364 18.8452 23.0146C18.7105 23.2063 18.2935 23.3884 17.9888 23.3884C17.5309 23.3884 17.0315 23.0628 17.0315 22.7647C17.0315 22.1657 17.9893 21.845 18.6226 22.2324ZM118.022 23.9475C116.987 20.5363 118.693 17.7069 122.333 16.7977C123.377 16.5368 128.105 16.6545 128.914 16.9616C129.212 17.0742 129.341 17.5062 129.344 18.3941C129.346 19.0933 129.423 19.9425 129.515 20.2812C129.654 20.7945 129.573 20.8955 129.026 20.8873C128.532 20.8796 128.233 20.5925 127.816 19.7238C127.149 18.3363 126.342 17.895 124.462 17.8898C122.061 17.8829 120.304 19.4853 120.59 21.4215C120.777 22.6814 122.046 23.9211 124.896 25.6254C127.608 27.2465 129.19 28.5798 129.821 29.7742C131.507 32.9677 130.067 36.3851 126.31 38.107C124.382 38.9908 121.15 39.0822 118.878 38.3172L117.423 37.8271V35.5224C117.423 33.4352 117.473 33.2172 117.953 33.2172C118.354 33.2172 118.528 33.4802 118.668 34.3043C119.019 36.3534 120.59 37.5974 122.827 37.5974C125.019 37.5974 126.551 36.4104 127.138 34.258C127.388 33.341 127.345 33.003 126.849 31.9915C126.255 30.7787 125.231 29.974 121.756 27.9867C119.828 26.8838 118.465 25.4093 118.022 23.9475ZM49.902 18.1594C49.4278 18.1594 49.2431 18.0058 49.2431 17.6119C49.2431 17.0903 49.4278 17.0643 53.1433 17.0643C56.592 17.0643 57.0335 17.1158 56.9542 17.5081C56.9049 17.7523 56.4282 18.091 55.8946 18.261L54.9247 18.5701L54.8417 25.5514C54.7864 30.2099 54.8642 32.8971 55.076 33.6277C55.7052 35.8005 57.6241 37.05 60.3319 37.05C62.217 37.05 63.3181 36.6131 64.7018 35.3156C66.1897 33.9207 66.427 32.5954 66.4223 25.707C66.4178 18.9124 66.2984 18.3516 64.8264 18.2106C64.1565 18.1463 63.9321 17.9916 63.9321 17.5946C63.9321 17.0996 64.1533 17.0643 67.2579 17.0643C70.3989 17.0643 70.5837 17.0947 70.5837 17.6119C70.5837 17.9492 70.3976 18.161 70.0988 18.1635C68.815 18.1747 68.7914 18.2958 68.6188 25.7463C68.4394 33.4836 68.272 34.3995 66.6902 36.2948C66.2341 36.8416 65.1462 37.6355 64.2729 38.0592C62.8498 38.7496 62.3973 38.8291 59.9135 38.8244C57.6239 38.8197 56.9011 38.7101 55.7562 38.1935C54.0848 37.4393 52.9982 36.4633 52.1969 34.9966C51.6377 33.9728 51.5897 33.4188 51.4602 26.4822C51.3121 18.5422 51.2402 18.1594 49.902 18.1594ZM75.8366 18.1594C75.2031 18.1594 75.0181 18.0357 75.0181 17.6119C75.0181 17.0985 75.1954 17.0657 77.859 17.0868L80.6997 17.1092L82.059 18.661C82.8063 19.5143 85.242 22.1839 87.4718 24.5933C89.7016 27.0024 92.2613 29.805 93.1601 30.8214C94.0591 31.838 94.9054 32.6695 95.0406 32.6695C95.1793 32.6695 95.2488 29.7982 95.1991 26.0748L95.1118 19.4801L94.3341 18.8198C93.9065 18.4565 93.2518 18.1594 92.879 18.1594C92.3832 18.1594 92.2017 18.0105 92.2017 17.6042C92.2017 17.0695 92.3434 17.0517 96.0126 17.1251C99.1324 17.1875 99.8235 17.2738 99.8235 17.6007C99.8235 17.8336 99.4376 18.0781 98.8968 18.1874C98.3875 18.2903 97.8263 18.517 97.6496 18.6911C97.4222 18.9159 97.306 21.8221 97.2498 28.7132L97.1703 38.4187H96.3671C95.6756 38.4187 94.8524 37.6474 90.4514 32.8748C87.6397 29.8254 84.3578 26.2015 83.1582 24.8215C81.9585 23.4413 80.8832 22.3017 80.7692 22.2891C80.4474 22.2534 80.5253 34.584 80.8543 35.7544C81.1109 36.6665 81.2871 36.8235 82.3771 37.1116C83.2549 37.3435 83.6099 37.5787 83.6099 37.9281C83.6099 38.3767 83.2755 38.4187 79.7298 38.4187C76.1208 38.4187 75.8496 38.383 75.8496 37.9055C75.8496 37.556 76.1107 37.3407 76.6687 37.2304C78.3609 36.8962 78.4732 36.3656 78.5684 28.2544C78.6215 23.7116 78.5433 20.5331 78.3617 19.8675C78.0428 18.6971 77.2479 18.1594 75.8366 18.1594ZM104.898 18.1594C104.304 18.1594 104.119 18.0294 104.119 17.6119C104.119 17.0887 104.304 17.0643 108.277 17.0643C112.249 17.0643 112.434 17.0887 112.434 17.6119C112.434 18.0135 112.249 18.1594 111.741 18.1594C111.36 18.1594 110.794 18.4108 110.483 18.718C109.934 19.2603 109.92 19.53 109.998 27.9119C110.074 36.0942 110.106 36.5676 110.616 36.9355C110.912 37.149 111.442 37.3237 111.794 37.3237C112.249 37.3237 112.434 37.4818 112.434 37.8713C112.434 38.3945 112.249 38.4187 108.277 38.4187C104.399 38.4187 104.119 38.3843 104.119 37.9064C104.119 37.5209 104.391 37.3509 105.217 37.2202C106.857 36.9612 106.941 36.4308 106.839 26.9663C106.757 19.3868 106.722 18.9142 106.214 18.5476C105.918 18.3341 105.326 18.1594 104.898 18.1594ZM133.897 18.1594C133.518 18.1594 133.23 17.9511 133.14 17.6119C133 17.0824 133.132 17.0643 137.127 17.0643C141.073 17.0643 141.258 17.0887 141.258 17.6119C141.258 18.0327 141.073 18.1594 140.46 18.1594C138.715 18.1594 138.754 18.4726 141.395 25.6324C142.739 29.277 144.044 32.739 144.295 33.3257L144.751 34.3927L146.868 28.8084C149.36 22.2352 149.683 21.0195 149.26 19.8207C148.965 18.9851 147.818 18.1594 146.953 18.1594C146.708 18.1594 146.524 17.924 146.524 17.6119C146.524 17.0879 146.708 17.0643 150.819 17.0643C154.93 17.0643 155.115 17.0879 155.115 17.6119C155.115 18.0015 154.93 18.1594 154.475 18.1594C153.31 18.1594 152.797 18.7733 152.964 19.9658C153.136 21.1934 157.903 34.3874 158.103 34.19C158.428 33.8689 163.707 19.6655 163.707 19.1119C163.707 18.4485 163.237 18.1594 162.16 18.1594C161.675 18.1594 161.49 18.0086 161.49 17.6119C161.49 17.0947 161.675 17.0643 164.816 17.0643C167.637 17.0643 168.141 17.1289 168.141 17.4892C168.141 17.7231 167.796 18.0332 167.374 18.1786C166.423 18.5057 166.185 18.8792 164.993 21.9041C164.47 23.2324 162.832 27.3898 161.353 31.1421C159.874 34.8948 158.601 38.1289 158.523 38.3288C158.445 38.529 157.987 38.6926 157.505 38.6926H156.627L154.636 33.5593C153.541 30.7362 152.248 27.3915 151.762 26.1267C150.929 23.9594 150.859 23.8652 150.546 24.4838C150.363 24.8453 149.047 28.196 147.622 31.93L145.032 38.7194L144.064 38.6376L143.097 38.5558L139.409 28.995C137.349 23.6534 135.454 19.1527 135.115 18.7968C134.782 18.4461 134.234 18.1594 133.897 18.1594ZM189.314 18.2755C189.268 18.1715 189.268 17.7978 189.268 17.7978C189.268 17.7978 189.258 17.663 189.315 17.591C189.372 17.5194 189.392 17.5175 189.596 17.4983L189.598 17.4981C190.346 17.4275 191.847 17.3088 193.1 17.2546C193.216 17.2496 193.344 17.2438 193.484 17.2375L193.486 17.2374L193.487 17.2374C194.866 17.1754 197.333 17.0924 199.029 17.1764C202.283 17.3376 204.598 18.8969 205.386 21.4736C206.175 24.0501 205.758 26.4688 204.683 28.0084C203.608 29.5479 201.8 30.8735 198.795 30.7872C196.315 30.716 195.651 30.2555 195.12 29.8877C195.008 29.8099 194.902 29.7362 194.786 29.6714V32.9573C194.812 35.1983 194.831 36.2746 195.006 36.673C195.242 37.2094 195.775 37.5398 196.814 37.7931C196.814 37.7931 197.284 37.9024 197.405 38.0188C197.526 38.1353 197.526 38.3939 197.526 38.3939C197.526 38.3939 197.551 38.6357 197.454 38.7589C197.356 38.8822 197.168 38.8575 197.168 38.8575L192.568 38.8208L189.795 38.8136C189.795 38.8136 189.503 38.869 189.394 38.7528C189.285 38.6365 189.295 38.3945 189.295 38.3945C189.295 38.3945 189.319 38.1338 189.447 38.0171C189.574 37.9004 190.047 37.7698 190.047 37.7698C191.117 37.472 191.581 37.1571 191.823 36.5638C192.019 36.0857 192.02 35.1985 192.018 27.9601C192.016 21.0957 192.006 19.8152 191.847 19.447C191.612 18.9019 191.024 18.7574 190.186 18.5518L190.186 18.5517C190.02 18.5109 189.844 18.4678 189.659 18.4186C189.659 18.4186 189.361 18.3795 189.314 18.2755ZM202.709 23.8767C202.709 25.0023 202.689 26.7646 201.48 27.8911C200.271 29.0175 197.891 29.3259 196.276 29.0122C195.767 28.9134 195.475 28.761 195.251 28.6435L195.228 28.6318L194.815 28.4159L194.791 24.4611C194.776 21.9831 194.802 20.3687 194.861 20.1379C194.915 18.8313 196.859 18.6687 197.809 18.7171C201.873 18.7171 202.59 22.1117 202.709 23.8767ZM176.401 17.2751C176.315 17.3077 176.195 17.3528 176.053 17.4063L174.968 17.9619L174.186 19.8958C173.757 20.9594 172.971 22.912 172.44 24.2348C171.472 26.6441 170.833 28.227 170.161 29.8792C169.964 30.3652 169.367 31.845 168.835 33.1679C168.303 34.4905 167.771 35.7493 167.653 35.9652C167.634 36.0011 167.613 36.0398 167.591 36.0808C167.294 36.6348 166.777 37.5974 165.864 37.743C165.864 37.743 165.363 37.7919 165.177 37.9738C164.991 38.1559 165.009 38.3046 165.009 38.3046V38.5339C165.009 38.5339 165.026 38.645 165.131 38.7003C165.236 38.7558 165.379 38.7589 165.379 38.7589L168.717 38.7213H172.167C172.167 38.7213 172.411 38.7496 172.505 38.6722C172.599 38.5949 172.625 38.4801 172.625 38.4801V38.2387C172.625 38.2387 172.577 37.9769 172.44 37.8747C172.304 37.7727 171.791 37.7028 171.791 37.7028C170.411 37.5228 170.173 36.4873 170.343 35.5561C170.427 35.0986 170.982 33.4063 171.607 31.7025L171.823 31.1136L175.438 31.0862C177.426 31.0711 179.143 31.0813 179.253 31.1089C179.41 31.1483 179.629 31.5905 180.274 33.1655C181.251 35.5519 181.329 35.8426 181.113 36.2891C181.1 36.3163 181.086 36.3462 181.071 36.3785C180.868 36.8103 180.473 37.6493 179.48 37.7347C179.48 37.7347 178.953 37.7528 178.822 37.9089C178.691 38.0653 178.719 38.2451 178.719 38.2451V38.484C178.719 38.484 178.754 38.624 178.822 38.6795C178.89 38.7349 179.004 38.7209 179.004 38.7209L182.286 38.6975L186.898 38.6973C186.898 38.6973 187.079 38.7164 187.128 38.6476C187.177 38.5785 187.187 38.4974 187.187 38.4974V38.1801C187.187 38.1801 187.167 38.0114 187.079 37.9183C186.99 37.8254 186.392 37.7273 186.392 37.7273C185.628 37.6051 185.247 36.9799 184.964 36.5143C184.892 36.3955 184.826 36.2871 184.761 36.2002C184.63 36.0228 184.161 35.0504 183.794 34.1152C183.426 33.18 182.598 31.0673 181.952 29.4206C181.306 27.774 180.406 25.4768 179.95 24.3162C179.495 23.1553 178.629 20.9466 178.027 19.4078C177.928 19.1553 177.839 18.9284 177.76 18.7254L177.759 18.7248C177.355 17.6912 177.192 17.2741 177.148 17.2177C177.002 17.0344 176.552 17.2177 176.552 17.2177C176.552 17.2177 176.497 17.2387 176.401 17.2751ZM176.338 23.5057C176.192 23.1549 175.936 22.5254 175.768 22.107C175.464 21.3465 175.348 21.1713 175.254 21.3284C175.227 21.3743 175.035 21.8941 174.828 22.4836C173.491 26.3001 172.885 28.0186 172.764 28.3424C172.687 28.546 172.625 28.7557 172.625 28.8086C172.625 28.8694 173.713 28.9049 175.577 28.9049C177.201 28.9049 178.529 28.8849 178.529 28.8605C178.529 28.836 178.384 28.4718 178.207 28.0506C178.03 27.6297 177.597 26.5782 177.244 25.7144C176.891 24.8506 176.484 23.8567 176.338 23.5057Z" fill="#121212"/>
</svg>
