<svg width="127" height="44" viewBox="0 0 127 44" fill="none" xmlns="http://www.w3.org/2000/svg">
<path d="M38.227 35.2567L29.972 21.9797L38.227 8.70268L42.2065 21.9797L38.227 35.2567ZM19.8545 33.9611L9.48251 24.1249H25.9925L34.2475 37.4019L19.8545 33.9611ZM19.8545 9.95765L34.2055 6.51685L25.9505 19.7939H9.44049L19.8545 9.95765ZM40.9365 0L22.1825 4.65515L19.3885 9.22904L13.7585 9.18841L0 21.9797L13.7585 34.771L19.3885 34.7303L22.1825 39.3042L40.9365 44L45.974 26.5536L43.1375 22.0203L45.974 17.4866L40.9365 0ZM83.5235 12.9127C81.026 12.9127 79.3325 13.9244 78.0625 15.7865H77.978V13.3984H73.5755V30.9659H78.0625V21.0082C78.0625 18.6201 79.629 16.9602 81.788 16.9602C83.82 16.9602 85.344 18.1344 85.344 20.1988V31.0065H89.8315V19.5104C89.8735 15.6651 87.3335 12.9127 83.5235 12.9127ZM66.7595 23.5583C66.7595 25.9062 65.3625 27.5251 63.0765 27.5251C61.0025 27.5251 59.69 26.392 59.69 24.3276V13.3984H55.2025V25.137C55.2025 28.9823 57.4885 31.4922 61.595 31.4922C64.1775 31.4922 65.6165 30.5609 66.8445 28.9421H66.9715V31.0065H71.2895V13.3984H66.802V23.5583H66.7595ZM92.2445 13.3984H96.7315V30.9659H92.2445V13.3984ZM92.2445 7.93388H96.7315V11.4555H92.2445V7.93388ZM122.174 13.3984L119.507 21.3319C118.914 22.9512 118.449 25.1776 118.449 25.1776H118.322C118.322 25.1776 117.729 22.9512 117.136 21.3319L114.131 13.3984H109.305L114.258 25.9062C115.316 28.5778 115.655 29.7109 115.655 30.6824C115.655 32.1396 114.85 33.0709 112.945 33.0709H111.21V36.7541H114.088C117.814 36.7541 119.126 35.3375 120.523 31.4516L127 13.4386H122.174V13.3984ZM105.114 25.825V16.5151H107.992V13.4386H105.114V7.93388H100.626V13.3984H98.0865V16.4745H100.626V26.7965C100.626 30.1158 103.251 31.0065 105.622 31.0065C107.569 31.0065 108.077 30.9252 108.077 30.9252V27.5251H106.934C105.876 27.5657 105.114 27.1206 105.114 25.825Z" fill="#121212"/>
</svg>
